PathFileType	4	(X/Y/Z)	C:\Users\chris\Documents\GitHub\baseballds\vids\pitch5_Sports2D\pitch5_Sports2D_px_person02.trc
DataRate	CameraRate	NumFrames	NumMarkers	Units	OrigDataRate	OrigDataStartFrame	OrigNumFrames
30	30	13	22	m	30	37	149
Frame#	Time	Hip			RHip			RKnee			RAnkle			RBigToe			RSmallToe			RHeel			LHip			LKnee			LAnkle			LBigToe			LSmallToe			LHeel			Neck			Head			Nose			RShoulder			RElbow			RWrist			LShoulder			LElbow			LWrist		
		X1	Y1	Z1	X2	Y2	Z2	X3	Y3	Z3	X4	Y4	Z4	X5	Y5	Z5	X6	Y6	Z6	X7	Y7	Z7	X8	Y8	Z8	X9	Y9	Z9	X10	Y10	Z10	X11	Y11	Z11	X12	Y12	Z12	X13	Y13	Z13	X14	Y14	Z14	X15	Y15	Z15	X16	Y16	Z16	X17	Y17	Z17	X18	Y18	Z18	X19	Y19	Z19	X20	Y20	Z20	X21	Y21	Z21	X22	Y22	Z22
37	1.2333333333333334	1146.5269747700552	495.238577822568	0.0	1155.0869365095145	499.71510080041935	0.0	1164.3486935061471	545.936216704294	0.0	1129.2593288606417	543.4232277075921	0.0	1123.898883661576	555.1157901168241	0.0	1127.0250398964934	556.9121391913906	0.0	1122.935306846861	538.0101260017318	0.0	1138.3130457950426	499.2681903534276	0.0	1146.3633075524378	545.4817325781471	0.0	1140.10445137006	583.9064649555094	0.0	1148.7833619690036	591.3757054467784	0.0	1147.0765244633058	589.6507438187602	0.0	1135.9799423299055	590.0641241699099	0.0	1158.9286291782098	442.2168457896854	0.0	1159.4112153365188	427.7546784160964	0.0	1161.2573366732042	431.5117619836381	0.0	1174.6437863686658	449.68738251092066	0.0	1178.6328918917793	472.6227600378338	0.0	1182.8769681102347	497.6751871314556	0.0	1139.9488431042278	451.2602687097039	0.0	1123.9189921822338	474.18407616018203	0.0	1139.0674670913497	483.88145014582835	0.0
38	1.2666666666666666	1154.8719809901472	494.0734049219562	0.0	1163.9082676966823	498.01796998343906	0.0	1178.8016564132556	542.9109433269019	0.0	1144.4538380512427	549.220781856918	0.0	1143.7405425584232	562.5666786891356	0.0	1147.2624670012474	564.9434575987613	0.0	1137.8870118249388	545.0802262747782	0.0	1146.704839821186	497.6388964355213	0.0	1150.159885154485	544.2607515507098	0.0	1140.1084530625974	583.9349847151823	0.0	1147.1115487309166	592.5083911207104	0.0	1144.5425985369498	591.0353271631807	0.0	1135.9644552332825	590.3062102049787	0.0	1168.0014458895862	441.48077359348576	0.0	1168.6992459665619	427.0061995288249	0.0	1170.423298750295	431.4312151411971	0.0	1183.1667939441404	448.1158612518834	0.0	1186.7482394972492	469.64491182540064	0.0	1190.1239613816722	494.16784266994887	0.0	1149.8040076207337	450.87286182179446	0.0	1135.1164314470345	475.0777330644225	0.0	1150.2306231077082	483.71941563388964	0.0
39	1.3	1164.1579376767331	491.62698616703534	0.0	1173.4747165988651	494.7298867860092	0.0	1190.1760624122057	538.4493710976316	0.0	1159.7395105750118	557.5160779691779	0.0	1165.0445574644518	573.9967064364471	0.0	1166.3553467597435	575.4015431152833	0.0	1152.6492716672524	556.4902397025407	0.0	1155.7937346920203	494.45046901693865	0.0	1154.143090201813	541.3614639037411	0.0	1141.0278662354854	582.5807152190351	0.0	1147.0871739230133	592.4391545466224	0.0	1142.9231819540255	591.6284685957277	0.0	1137.1032461780305	589.5286578550388	0.0	1176.9024857446543	438.6695170206043	0.0	1178.2904788614699	421.7315436116959	0.0	1179.1569567240208	428.287062899552	0.0	1191.4539174669171	444.14650570028095	0.0	1194.7110443369004	463.9909030695406	0.0	1197.7588555146822	487.66663696264	0.0	1159.510899364706	448.40141058763	0.0	1146.3332946736828	473.40944910235254	0.0	1159.2829715957969	481.62078352391825	0.0
40	1.3333333333333333	1174.2785355314927	488.62741422477825	0.0	1183.6775739885732	492.1916673386895	0.0	1199.2382806489607	535.0801500222844	0.0	1175.5036189208986	566.2934466727091	0.0	1185.74017449784	583.3308169006647	0.0	1184.5011158272023	584.1859651342083	0.0	1168.415104880483	568.959000938707	0.0	1165.5912263270136	491.7784457724732	0.0	1158.5907256693927	537.8039613540184	0.0	1143.2551036816508	579.2902353249387	0.0	1149.0063637724843	591.1846889533285	0.0	1144.3276334336892	590.7159770338054	0.0	1139.4680858517795	585.9899690057266	0.0	1186.1735536851966	434.89662853677504	0.0	1187.9987104903284	416.49485913305955	0.0	1188.276545998141	423.6921159160978	0.0	1199.9875868690724	439.70626068241165	0.0	1202.0863085239857	457.85776067292335	0.0	1206.4500774797477	480.88824505116503	0.0	1169.2274010198291	444.6667103630985	0.0	1156.403185299255	470.09192959331546	0.0	1166.0545509926976	478.2184559576549	0.0
41	1.3666666666666667	1184.5388298221455	485.4825680394696	0.0	1193.793189292386	491.1744891349998	0.0	1207.2077600159334	533.8771912406813	0.0	1192.246231870339	573.0717370278825	0.0	1205.251049905239	586.5807998851835	0.0	1203.2657700809077	588.4515657561126	0.0	1186.1025522675998	578.7347785407756	0.0	1175.796363639642	490.3994324053056	0.0	1163.7156122318656	534.4120923922429	0.0	1146.4780985807643	574.3948907645938	0.0	1151.8455038526342	589.2497920872746	0.0	1148.356254720249	588.2641188367609	0.0	1142.6836654646374	579.4844406491508	0.0	1196.3641829674236	431.1830395987543	0.0	1198.292989728706	414.36571768536385	0.0	1198.5864365911493	419.5617307520754	0.0	1208.8705909458085	436.3562667994156	0.0	1208.9811871092188	452.99333181858685	0.0	1215.4816614327224	475.8552422918784	0.0	1179.467132363963	440.6308361636361	0.0	1165.5914585354458	465.9167338843487	0.0	1172.509124180496	474.20176813638847	0.0
42	1.4	1194.2404610942012	482.93977142440656	0.0	1203.2500310972828	490.7778143924812	0.0	1215.1209076383802	534.0746957172988	0.0	1209.516200835354	576.6019735285781	0.0	1223.4461138473941	585.136484463837	0.0	1222.2719187156515	588.4477135242353	0.0	1205.0937678075682	584.0587828455848	0.0	1185.8013286918995	489.63775317101994	0.0	1169.9844492744605	531.5521911452092	0.0	1150.6259020543046	568.3595999846034	0.0	1154.309786359549	586.3616502807904	0.0	1152.3605179968183	584.3060707934078	0.0	1146.761860969573	571.3385165090555	0.0	1206.8363875702616	428.71770086609183	0.0	1209.1069512265697	414.4781270800394	0.0	1209.556558510486	417.49517460052317	0.0	1217.509380281575	434.58506371951455	0.0	1215.7935225845065	449.77212430725916	0.0	1223.6656640353474	473.10971104344867	0.0	1189.853736231436	437.71976576018966	0.0	1174.791336487181	462.34235306087953	0.0	1180.5240578957514	470.5576603213728	0.0
43	1.4333333333333333	1203.3701346285893	482.0437780061167	0.0	1212.4797749620577	490.3767076040775	0.0	1223.6807493131232	534.7177843146075	0.0	1225.7132559277081	577.6618892575995	0.0	1239.2464337940255	582.2777067216165	0.0	1239.3519019061196	586.3954865312395	0.0	1223.2114280952437	585.7119175073057	0.0	1195.233485955819	488.9986943123072	0.0	1177.8413581421125	529.6201277651538	0.0	1156.1727693417238	561.2011653489237	0.0	1155.752534077498	581.5761256710998	0.0	1154.337661343473	578.5378440715006	0.0	1152.106857774685	562.6496370340012	0.0	1216.6005264895184	428.3125378252988	0.0	1219.5691700419459	415.0356538313595	0.0	1219.9837680019236	417.88001324892366	0.0	1225.8760039842837	434.46166106435624	0.0	1223.115875332388	448.5678795038415	0.0	1231.139157038522	472.10323116121424	0.0	1199.4483991523216	436.87858273729245	0.0	1183.9573229876776	460.7930401731607	0.0	1190.4618490155847	468.46673077096193	0.0
44	1.4666666666666666	1212.4873942050476	483.3598594635863	0.0	1222.3279781848814	490.37470740955587	0.0	1233.0012083541264	535.7471809937822	0.0	1239.2250749147752	578.1273222877436	0.0	1251.2145651784492	580.718945073501	0.0	1252.664905484476	585.0872010862549	0.0	1238.3700001087298	586.0070151952896	0.0	1204.300186548847	488.8253432500146	0.0	1187.1007800661773	529.4088318530528	0.0	1163.7147628352245	553.1128160043794	0.0	1157.359913280675	574.3893770150456	0.0	1155.5038837886812	570.9500178506958	0.0	1159.3450344313728	553.499646930165	0.0	1225.78868032571	429.87032543128925	0.0	1229.3786033785675	415.7533995416689	0.0	1229.3946034921219	419.9038197358554	0.0	1234.839365194048	436.18699943443556	0.0	1231.3388243658947	449.94105195719635	0.0	1239.51434336707	472.3329742863336	0.0	1208.30328471885	437.9053859284755	0.0	1192.6094379094598	461.3610850567975	0.0	1201.8520989546425	468.23103535685993	0.0
45	1.5	1221.7933390368555	486.5672463437188	0.0	1232.6541054214704	491.2746875656285	0.0	1242.7526613970572	537.391404515465	0.0	1249.222500539785	579.2252614785012	0.0	1258.982599121098	582.0529765631927	0.0	1261.6344551477014	586.2178944522266	0.0	1249.3512272403834	586.7296107197147	0.0	1213.1480140995889	489.6541834802493	0.0	1197.2531442743114	531.6804098889627	0.0	1173.5370840427177	545.2582767320487	0.0	1161.7772492722727	565.3588191350041	0.0	1159.5341874496758	562.4347243005991	0.0	1169.0449951353096	544.2574408720693	0.0	1234.9334693615851	432.88334751021733	0.0	1239.0583515093388	416.74755786277433	0.0	1238.454443941188	422.75866998611195	0.0	1244.5790555260637	439.6663999346373	0.0	1240.2196845105	453.73098595267834	0.0	1249.6619304335188	474.02366447176234	0.0	1217.0858021973977	440.2215973713704	0.0	1200.7648731373406	463.2832473293159	0.0	1213.8810982575246	469.53079505124526	0.0
46	1.5333333333333332	1230.814019724878	490.8048611827859	0.0	1242.2262159671905	493.30862468837796	0.0	1252.4591024454442	539.4609951386678	0.0	1255.4935821799984	580.8564064052234	0.0	1263.6945359538731	585.6747723754256	0.0	1266.6944290574916	589.1488543822184	0.0	1255.4549952778057	588.0528293809882	0.0	1221.5443763151131	491.8637240510405	0.0	1208.2652216709366	536.1098620694278	0.0	1185.3745360380776	539.5619252788367	0.0	1170.6274060733003	556.1198452880622	0.0	1169.1041949975156	554.5643281366794	0.0	1181.0524309760497	536.7591581561724	0.0	1243.946228385572	436.90471230825483	0.0	1248.962892379829	417.93765077765266	0.0	1248.3160468630083	426.30130517379354	0.0	1254.1417442197667	444.3626474310567	0.0	1249.3380723897253	459.6091716636975	0.0	1260.8912331985066	477.81237369508847	0.0	1225.9923184818563	443.5450259063391	0.0	1208.8766160945684	465.8947623544728	0.0	1225.2497129394276	472.5400061196666	0.0
47	1.5666666666666667	1239.185346476558	495.0369917437417	0.0	1250.270740871088	496.3342129677055	0.0	1261.4931186519907	541.6222454067738	0.0	1258.5436699863285	582.3879539395587	0.0	1266.612789388316	589.3076478851076	0.0	1268.875936176661	592.0142292281961	0.0	1257.2221849454277	589.3276120013734	0.0	1229.4032767198203	495.1425146219692	0.0	1220.5012498959718	541.0583000424343	0.0	1198.5762840078296	537.2462923728983	0.0	1183.2337037986454	549.1989652385664	0.0	1183.4832652747975	549.1395000575801	0.0	1194.503017516185	532.8447500894695	0.0	1252.6555183483388	441.2733463972292	0.0	1258.942513964942	419.1838729256831	0.0	1258.92509939738	430.2054899717815	0.0	1263.0556807485536	449.58336971678244	0.0	1258.889235055296	467.1655829699141	0.0	1272.4128850301365	483.3388839439034	0.0	1234.7770942079796	447.44875560765956	0.0	1217.184328858969	468.6580896610078	0.0	1234.4182682108415	477.0671128982606	0.0
48	1.6	1247.0951390578498	498.13769025919885	0.0	1257.3147217775486	499.25925700980815	0.0	1268.965823758298	543.7125968917326	0.0	1259.678387806802	583.4728711801965	0.0	1268.2568163354808	591.2137456882176	0.0	1269.5755603913358	593.60237255217	0.0	1256.818697450523	590.0293308680727	0.0	1237.0103311095468	497.9674769500265	0.0	1233.718031346061	544.5551730743676	0.0	1212.2959959533246	537.67128036956	0.0	1197.7142397134664	547.234555384771	0.0	1199.2141756074518	547.87580941133	0.0	1208.2622619681326	532.3834061254194	0.0	1261.1275095645028	444.9190828419105	0.0	1268.6588889693608	419.94975521193925	0.0	1268.6958595007936	433.426804615945	0.0	1271.787703145082	454.24259712211506	0.0	1269.3422497649055	474.9610288368217	0.0	1283.5709091795165	488.3572361098172	0.0	1242.9381012667593	450.81780496668074	0.0	1225.165519810716	470.95966773195795	0.0	1241.023216267944	481.21303239297674	0.0
49	1.6333333333333333	1254.8112706866727	499.32556926476724	0.0	1264.2281664995694	500.75777574478684	0.0	1274.0909130003438	545.5769736615325	0.0	1260.219873660894	584.0821815778888	0.0	1268.9438457085787	591.3870744421096	0.0	1269.7948192365677	593.9879023875587	0.0	1256.3979516836723	590.2194516825921	0.0	1244.6762520423617	498.9518438833398	0.0	1246.5404049137935	545.2896863945659	0.0	1225.6120293047206	539.4676703607756	0.0	1212.844484706997	551.4676516564704	0.0	1213.6270670508231	551.351527551922	0.0	1221.2192212756204	534.2115520349706	0.0	1269.2911229819385	446.8139245623007	0.0	1277.7416955675674	419.88531299536834	0.0	1276.7902118029515	435.0459483416681	0.0	1280.5535191564782	456.9091887537937	0.0	1280.6226392785652	480.87870632496447	0.0	1292.9472875459949	489.84081114804894	0.0	1250.2792011521828	452.3118695391447	0.0	1232.0369035441374	471.9669568415474	0.0	1246.3676246423584	482.5301283560413	0.0
